<svg xmlns="http://www.w3.org/2000/svg" height="800" width="1200" viewBox="-8.47329 -16.03125 73.43518 96.1875">
    <path d="M1.0807.5883l27.26 4.0835L55.4079.5883l-4.4832 57.316-22.584 5.7058-23.7848-5.7058z" fill="#e5e7e8"
        stroke="#ccc" />
    <path d="M28.3407 10.845l21.829-3.9157-2.9088 46.989-18.9202 4.6988z" fill="#fff" />
    <path fill="#ff2600" d="M0 22.5311h34.0273v19.1362H0z" />
    <path fill="#ff501a" d="M33.0081 22.5311h23.4805v19.1362H33.0081z" />
    <path
        d="M3.3005 24.5716v15.0527h2.794V34.531H9.891l1.778-1.5909v-6.604l-1.8048-1.7645zm2.794 2.9143h2.6602v4.3714H6.0945zm6.7911-2.9143v15.0527h6.898l1.6042-1.5507V26.1089L19.69 24.5716zm2.9142 2.9143h2.9143v9.224h-2.9143zm7.0399-2.9104h7.04v2.9131H25.51v3.1726c1.2543.0473 2.5086-.0473 3.7629 0v2.884c-1.2543.0474-2.5086-.0472-3.7629 0v6.0816h-2.6703V24.5755zM36.518 38.8378l-.9333-.789v-2.5499l2.7917.0009v1.2138h2.4277V24.5755l2.7917-.0002v13.4735l-1.8666 1.578h-4.2779l-.9333-.789zm9.225 0l-.9023-.789v-2.5575c.8817 0 1.879.0085 2.7607.0085v1.2138h2.9132v-3.1559h-4.1029l-1.602-1.578v-5.8262l1.602-1.578h4.9578l1.8186 1.578c-.0009.7687-.002 1.5374-.0032 2.3062h-2.6703v-.971h-2.9132v3.1559h3.8374l1.7461 1.5459v5.846l-.8937.7951-.8938.7952h-4.7211z"
        fill="#fff" />
</svg>